<?xml version="1.0" encoding="utf-8"?>
<!-- Generator: Adobe Illustrator 23.0.3, SVG Export Plug-In . SVG Version: 6.00 Build 0)  -->
<svg version="1.1" id="Logos" xmlns="http://www.w3.org/2000/svg" xmlns:xlink="http://www.w3.org/1999/xlink" x="0px" y="0px"
	 width="615.8px" height="243.1px" viewBox="0 0 615.8 243.1" style="enable-background:new 0 0 615.8 243.1;" xml:space="preserve"
	>
<style type="text/css">
	.st0{fill:#EE0000;}
</style>
<title>Logo-Red_Hat-Quay-A-Standard-RGB</title>
<path d="M289.7,210.4l7.5,9.1L287,222l-5-6c-5.7,3.1-12.1,4.7-18.6,4.7c-21.2,0-37.9-16.5-37.9-37.5s16.6-37.6,37.9-37.6
	s38,16.5,38,37.6C301.4,193.4,297.2,203.3,289.7,210.4z M282.9,202.2c4.8-5.2,7.4-12,7.3-19c0-15.6-11.6-27.5-26.8-27.5
	s-26.7,11.9-26.7,27.5s11.6,27.5,26.7,27.5c4.2,0,8.3-0.9,12-2.7l-9.5-11.5l10.2-2.5L282.9,202.2z"/>
<path d="M321.9,198.1c0,8.2,5,13.4,13.2,13.4c5.2,0.2,10.2-2.4,13-6.9v-38.1h10.4v52.9h-10.4v-5.3c-4.2,4.2-10,6.5-15.9,6.3
	c-12.2,0-20.6-8.5-20.6-20.7v-33.3h10.3L321.9,198.1z"/>
<path d="M368,204.4c0-10.6,9-16.1,21.4-16.1c5,0,9.9,1,14.5,2.9v-5.6c0-7.5-4.5-11.2-12.9-11.2c-5.1,0-10.3,1.6-16.4,4.5l-3.9-7.8
	c7.5-3.5,14.4-5.4,21.7-5.4c13.6,0,21.6,6.7,21.6,18.9v35h-10.2V215c-4.6,3.7-10.5,5.7-16.4,5.5C375.9,220.5,368,213.8,368,204.4z
	 M389.8,212.8c5.1,0.2,10.1-1.6,14-5v-9.3c-4.2-2.2-8.9-3.3-13.6-3.1c-7.3,0-12.3,3.2-12.3,8.7C378,209.4,382.9,212.8,389.8,212.8
	L389.8,212.8z"/>
<path d="M440.4,219.6l-21.1-53h11.4l15.5,40.5l17-40.5h11.2l-25.3,58.7c-4.7,10.9-10.2,15.8-20.2,15.8c-1.9,0.1-3.7-0.1-5.5-0.5
	v-9.2c1.5,0.3,3,0.5,4.6,0.4c4.5,0,8-2.1,10.5-7.8L440.4,219.6z"/>
<path class="st0" d="M129,85c12.5,0,30.6-2.6,30.6-17.5c0-1.1-0.1-2.3-0.3-3.4l-7.4-32.4c-1.7-7.1-3.2-10.4-15.7-16.6
	C126.4,10.2,105.3,2,99,2c-5.8,0-7.6,7.5-14.4,7.5c-6.7,0-11.6-5.6-17.9-5.6c-6,0-9.9,4.1-12.9,12.5c0,0-8.4,23.7-9.5,27.2
	c-0.2,0.6-0.3,1.3-0.2,2C44,54.8,80.3,85,129,85 M161.6,73.6c1.7,8.2,1.7,9.1,1.7,10.1c0,14-15.7,21.8-36.4,21.8
	C80,105.5,39.1,78.1,39.1,60c0-2.5,0.5-5,1.5-7.3C23.8,53.5,2,56.5,2,75.7C2,107.2,76.6,146,135.6,146c45.3,0,56.7-20.5,56.7-36.6
	C192.3,96.6,181.3,82.2,161.6,73.6"/>
<path d="M161.5,73.6c1.7,8.2,1.7,9.1,1.7,10.1c0,14-15.7,21.8-36.4,21.8C80,105.5,39.1,78.1,39.1,60c0-2.5,0.5-5,1.5-7.3l3.7-9.1
	c-0.2,0.6-0.3,1.3-0.2,1.9C44,54.8,80.3,85,129,85c12.5,0,30.6-2.6,30.6-17.5c0-1.1-0.1-2.3-0.3-3.4L161.5,73.6z"/>
<path d="M581.2,94.3c0,11.9,7.2,17.7,20.2,17.7c4-0.1,8-0.7,11.9-1.7V96.5c-2.5,0.8-5.1,1.2-7.7,1.2c-5.4,0-7.4-1.7-7.4-6.7V69.8
	h15.6V55.6h-15.6v-18l-17,3.7v14.3H570v14.2h11.2L581.2,94.3z M528.2,94.6c0-3.7,3.7-5.5,9.3-5.5c3.4,0,6.8,0.4,10.1,1.3v7.2
	c-3.2,1.8-6.9,2.7-10.6,2.6C531.5,100.2,528.3,98.1,528.2,94.6 M533.5,112.2c6,0,10.8-1.3,15.4-4.3v3.4h16.8V75.6
	c0-13.6-9.2-21-24.4-21c-8.5,0-16.9,2-26,6.1l6.1,12.5c6.5-2.7,12-4.4,16.8-4.4c7,0,10.6,2.7,10.6,8.3v2.7
	c-4.1-1.1-8.4-1.6-12.6-1.6c-14.3,0-22.9,6-22.9,16.7C513.3,104.8,521,112.2,533.5,112.2 M441,111.3h18.1V82.4h30.3v28.8h18.1V37.6
	h-18.1v28.3h-30.3V37.6H441L441,111.3z M372.1,83.4c0-8,6.3-14.1,14.6-14.1c4.3-0.1,8.5,1.4,11.8,4.3V93c-3.2,3-7.4,4.6-11.8,4.4
	C378.5,97.4,372.1,91.3,372.1,83.4 M398.7,111.2h16.8V33.9l-17,3.7v20.9c-4.3-2.5-9.2-3.7-14.2-3.7c-16.2,0-28.9,12.5-28.9,28.5
	c-0.2,15.6,12.3,28.4,27.9,28.6c0.2,0,0.3,0,0.5,0c5.4,0,10.6-1.7,14.9-4.8L398.7,111.2z M321.5,68.5c5.4,0,9.9,3.5,11.7,8.8H310
	C311.7,71.8,315.9,68.5,321.5,68.5 M292.8,83.5c0,16.2,13.2,28.8,30.3,28.8c9.4,0,16.2-2.5,23.2-8.4l-11.3-10
	c-2.6,2.7-6.5,4.2-11.1,4.2c-5.9,0.2-11.4-3.3-13.7-8.8h39.6v-4.2c0-17.7-11.9-30.4-28.1-30.4c-15.8-0.2-28.8,12.4-29,28.1
	C292.8,83,292.8,83.2,292.8,83.5 M263.5,53.1c6,0,9.4,3.8,9.4,8.3s-3.4,8.3-9.4,8.3h-17.9V53.1H263.5z M227.5,111.2h18.1V84.4h13.8
	l13.9,26.8h20.2l-16.2-29.5c8.4-3.4,13.9-11.6,13.9-20.7c0-13.2-10.4-23.5-26-23.5h-37.6L227.5,111.2z"/>
</svg>
